# xmcd
#
# Track frame offsets:
#	150
#	15592
#	34252
#	50727
#	67073
#	88821
#	109686
#	132696
#	148327
#	165787
#	178696
#	199027
#	215358
#	231060
#	251806
#	267789
#	287890
#	300192
#	320626
#	334150
#
# Disc length: 4755 seconds
#
# Revision: 0
# Processed by: cddbd v1.5.2PL0 Copyright (c) Steve Scherf et al.
# Submitted via: EZCDAudioConverter 2.0.5.1
#
DISCID=2f129114
DTITLE=Artistes varies - Lounge Anthology 2011 - CD 4
DYEAR=2011
DGENRE=Lounge
TTITLE0=Something A La Mode - Rondo Parisiano (with Karl Lagerfeld)
TTITLE1=The Mighty Bop - Infrarouge
TTITLE2=Bebo Best And The Super Lounge Orchestra - Come As You Are
TTITLE3=Boogalox - Chez les Ye-Ye
TTITLE4=Bonobo - The Keeper (with Andreya Triana)
TTITLE5=Peder - The Sour (with Dean Bowman)
TTITLE6=Flox - Killing U And Me
TTITLE7=Darondo - Didn't I
TTITLE8=Molecule - Baby Girl 2014 (with Martina Topley-Bird)
TTITLE9=The Cinematic Orchestra - Build A Home (with Patrick Watson)
TTITLE10=Better Daze - Golden Brown
TTITLE11=Elsa Hedberg - Open The Door
TTITLE12=Jason Edwards - Holy Doom
TTITLE13=Da Brasilians - Please Stay
TTITLE14=James Comb - Happy Together
TTITLE15=Ennio Morricone - La Cugina
TTITLE16=Maxence Cyrin - Where Is My Mind
TTITLE17=Yael Naim - Flashdance
TTITLE18=Seth Gallen and Melody Gardot - My Sweet Darling
TTITLE19=Caravan Palace - Ended With A Night
EXTD=
EXTT0=
EXTT1=
EXTT2=
EXTT3=
EXTT4=
EXTT5=
EXTT6=
EXTT7=
EXTT8=
EXTT9=
EXTT10=
EXTT11=
EXTT12=
EXTT13=
EXTT14=
EXTT15=
EXTT16=
EXTT17=
EXTT18=
EXTT19=
PLAYORDER=
